# xmcd
#
# Track frame offsets:
#	183
#	13963
#	29195
#	47945
#	64905
#	81333
#	96908
#	112568
#	133060
#	157963
#	174450
#	195713
#	213018
#	226130
#	240903
#	256768
#	273813
#	290888
#	307590
#	327248
#
# Disc length: 4594 seconds
# Revision: 0
# Processed by: cddbd v1.5.2PL0 Copyright (c) Steve Scherf et al.
# Submitted via: dBpowerAMP V12.0
#
DISCID=0f11f014
DTITLE=Various Artist - 
DYEAR=1900
DGENRE=
TTITLE0=Elton John - I'm Still Standing
TTITLE1=Wham - Bad Boys
TTITLE2=Duran Duran - Is There Something I Should Know?
TTITLE3=Kajagoogoo - Too Shy
TTITLE4=Men at Work - Down Under
TTITLE5=Big Country - Fields of Fire
TTITLE6=Status Quo - Marguerita Time
TTITLE7=Marillion - Garden Party
TTITLE8=Spandau Ballet - True
TTITLE9=Tina Turner - Let's Stay Together
TTITLE10=Elton John - I Guess That's Why They Call it the Blues
TTITLE11=Style Council - A Solid Bond in Your Heart
TTITLE12=Fun Boy Three - Our Lips are Sealed
TTITLE13=Cliff Richard - True Love Ways
TTITLE14=Peabo Bryson and Roberta Flack - Tonight I Celebrate My Love For You
TTITLE15=Hot Chocolate - What Kinda Boy You Lookin For (girl)
TTITLE16=Eddy Grant - Electric Avenue
TTITLE17=Herbie Hancock - Rockit
TTITLE18=Duran Duran - The Union of the Snake
TTITLE19=Spandau Ballet - Gold
EXTD=
EXTT0=
EXTT1=
EXTT2=
EXTT3=
EXTT4=
EXTT5=
EXTT6=
EXTT7=
EXTT8=
EXTT9=
EXTT10=
EXTT11=
EXTT12=
EXTT13=
EXTT14=
EXTT15=
EXTT16=
EXTT17=
EXTT18=
EXTT19=
PLAYORDER=
